<svg xmlns="http://www.w3.org/2000/svg" xmlns:xlink="http://www.w3.org/1999/xlink" width="117" height="135" viewBox="0 0 117 135"><defs><path id="xagya" d="M1438.74 3423.63c.25-5.95 3.76-11.28 10.16-11.56 7.64-.32 13.9 5.86 14.39 13.4-.67 15.49-25.15 12.37-24.55-1.84zm1.81-.44c.33 5.02 4.58 8.7 9.17 10.03l-1.36-2.14c-.37-.57.74-1.37 1.11-.8.72 1.1 1.4 2.21 2.08 3.33 1.33.2 2.64.18 3.86-.07a4.35 4.35 0 0 1-.93-.8c-.7-.81-1.11-1.82-1.83-2.6-.44-.49.2-1.7.68-1.17.68.74 1.08 1.65 1.7 2.43.62.8 1.32 1.17 2.2 1.55.6-.28 1.16-.63 1.66-1.06-1.01-1.49-2-2.87-3.51-3.93-.7-.49.36-1.18.9-.8a14.42 14.42 0 0 1 3.51 3.78 7.55 7.55 0 0 0 1.37-2.84c-.45-.5-.9-.99-1.27-1.54-.53-.77-1.28-1.28-2.04-1.8-.53-.37-.12-1.67.47-1.27.82.57 1.65 1.12 2.24 1.94.27.38.55.73.85 1.08.02-.2.05-.39.06-.6-.33-5.18-4.72-10.94-10.18-11.56l.64 1.02c.4.58-.24 1.59-.74.84-.42-.64-.81-1.29-1.22-1.93a12 12 0 0 0-3.48.53c.1.08.2.15.29.26.53.6.74 1.42 1.29 2.01.54.59-.6 1.23-1.04.76-.5-.55-.75-1.19-1.15-1.79a2.32 2.32 0 0 0-.75-.73 8.7 8.7 0 0 0-2.2 1.49c.15.27.3.53.49.77.38.5.75.74 1.3 1.03.57.3.26 1.58-.45 1.22a4.1 4.1 0 0 1-1.62-1.38 14 14 0 0 1-.5-.8 7.35 7.35 0 0 0-1.35 2.77c.27.29.53.58.74.92.31.5.71.7 1.23.94.32.15.22.56.03.75a.82.82 0 0 1-.94.16 3.1 3.1 0 0 1-1.31-.92c-.01.3-.02.6 0 .92zm16.36-20.2c.47-12.62 18.28-11.51 18.88.56l-.01.1.02.17c-.2 5.44-3.48 9.03-8.96 9.23-5.4.2-10.13-4.66-9.93-10.06zm1.88.35c.6 3.97 3.8 6.59 7.11 7.27-.29-.5-.62-1-.98-1.5-.4-.56.74-1.31 1.14-.75.58.8 1.07 1.57 1.46 2.42 1.22.01 2.4-.27 3.42-.86a5.52 5.52 0 0 0-.64-.98c-.51-.6-1.14-1-1.78-1.43-.29-.19-.12-.58.1-.73.3-.21.66-.2.95 0 .67.44 1.3.86 1.83 1.48.23.27.42.56.6.86a5.96 5.96 0 0 0 1.4-2.14c-.2-.48-.4-.96-.78-1.3-.53-.5-1.17-.67-1.83-.92-.74-.27.12-1.29.72-1.07.73.27 1.51.48 2.08 1.05l.29.35c.03-.28.06-.57.07-.86-.28-4.1-3.18-8.05-7.56-8.28h-.31c.04.12.1.23.16.35.25.45.56.88.85 1.3.2.3-.1.6-.36.66a.83.83 0 0 1-.89-.34 9.88 9.88 0 0 1-1.06-1.92c-1.2.13-2.33.5-3.27 1.07.15.35.32.7.59.98.35.37.78.6 1.23.87.74.43-.26 1.2-.83.87-.59-.34-1.14-.65-1.6-1.17-.19-.22-.34-.47-.47-.72a5.47 5.47 0 0 0-1.41 2.2c.11.34.24.68.5.92.44.4.97.5 1.53.65.76.21.13 1.37-.49 1.2-.64-.18-1.33-.3-1.85-.75 0 .4.02.8.08 1.22zm40.71 43.95c-3.47 3.47-7.59 7.79-11.9 10.12-3.58 1.93-7.44 3.4-10.7 5.9-2.1 1.63-4.14 3.37-6.42 4.74-2.42 1.47-5.22 3.5-8.12 4.89-.12.11-.26.19-.4.18-1.5.69-3.02 1.2-4.52 1.37-4.3.47-9.6-.6-13.73-1.63-5.07-1.26-9.56-3.31-14.85-4.04-3.34-.46-6.7-.86-10.05-1.2.07 1.3.11 2.6.11 3.9l-.02.17v.11c-.87 8.69-7.99 3.6-14.08 4.73-4.08.76-6.14.87-5.63-3.73.76-6.93-.1-13.46.09-20.35.06-2.26.07-4.48.07-6.69-.17-.2-.14-.43 0-.63-.03-4.11-.14-8.19-.35-12.4-.06-1.18.97-2.53 2.25-2.44 4.73.33 8.7.66 13.49.09 4.33-.51 4.18 4.42 4.18 7.63 0 .44 0 .88-.02 1.32 4.4-.8 8.7-2.16 13.19-2.22 4.3-.05 7.77 1.38 11.88 2.65 4.85 1.5 9.83 2.15 14.69 3.54-.3-.34-.3-.8.35-1.1 5.47-2.58 14.3-11.8 19.16-4.41 1.8-1.08 3.56-2.43 5.67-2.76 3.32-.53 5.49.14 7 2.87l.12-.06c2.42-.75 6.54-1.47 8.36 1.01 1.78 2.45 2.58 6.05.18 8.44zm-83.28 26.48a4.7 4.7 0 0 0 .96-2.6c0-.83-.01-1.65-.04-2.48-2.76-2.73-6.48-4.38-8.78-7.54-2.2-3.03-4.18-5.53-6.86-7.83v3.37c2.65 2.22 5.01 4.5 6.9 7.49 2.42 3.78 4.5 6.86 7.82 9.59zm-2-11.68c-3.41-5.75-7.86-10.06-12.72-14.4v4.07c2.81 2.28 4.76 4.62 6.99 7.7 2.27 3.12 5.67 4.94 8.5 7.5a.7.7 0 0 1 .07-.46c-.13-2.94-.33-5.87-.45-8.8-4.86-5.7-9.83-11.11-15.25-16.23.06 1.47.1 2.93.12 4.4 5.3 4.69 10.16 9.21 13.85 15.41.36.6-.75 1.39-1.1.8zm-.88-29.13c.48 1.31.98 2.61 1.85 3.74.62.8 1.34 1.48 2.1 2.13 0-.99-.03-1.97-.1-2.94-.17-2.22-1.85-2.85-3.85-2.93zm-5.73.36c1.63 1.86 2.57 4.19 4.25 6.01a33.85 33.85 0 0 0 5.22 4.38c.07-.84.12-1.68.15-2.52a1.4 1.4 0 0 1 .04-.9v-.06c-1.29-1.07-2.58-2.12-3.5-3.54a17.96 17.96 0 0 1-1.75-3.73c-1.6.08-3.24.35-4.41.36zm-6.7 1.87c.16 1.53.27 3.05.36 4.59a192.92 192.92 0 0 1 15.27 16.03 82.8 82.8 0 0 1 0-4 .46.46 0 0 1-.29-.16 110.1 110.1 0 0 0-13.88-14.8c-.54-.47.62-1.19 1.11-.76a109.4 109.4 0 0 1 13.12 13.86c.04-.65.06-1.29.12-1.93l.25-2.84c-2.01-1.44-4.1-2.82-5.78-4.65-1.9-2.06-3-4.64-4.89-6.71-.2-.22-.1-.46.1-.62-2.32-.42-5.87-1.5-5.49 2zm3.32 39.14a30.15 30.15 0 0 0-3.06-3.55c-.28 1.45-.8 4.18.2 4.03.95-.15 1.9-.33 2.86-.48zm10.97.19a24.71 24.71 0 0 1-6.34-7.06 37.82 37.82 0 0 0-7.36-9.12l.06 3.7c.06 2.37.05 4.77-.18 7.14a32.17 32.17 0 0 1 4.3 4.96 14.22 14.22 0 0 1 3.83.06 15.21 15.21 0 0 1-2.39-2.52c-1.35-1.87-2.45-3.71-4.09-5.37-.5-.5-.01-1.58.62-.94a22.49 22.49 0 0 1 3.5 4.46c1.14 1.92 2.75 3.27 4.44 4.66l.1.11c1.26.22 2.51.33 3.51-.08zm76.41-35.04c-.12.04-.23.04-.34.04-.16.32-.47.58-.8.72a.96.96 0 0 1-.16.12c-4.43 2.77-8.03 6.45-12.64 8.9-1.25.67-1.32-1.48-.35-1.99 2.57-1.37 4.42-3.02 6.63-4.83a47.63 47.63 0 0 1 4.97-3.41c-.56-1.14-1.33-2.26-2.68-2.34-1.03-.06-2.76-.08-3.67.46l-3.1 1.86c-.07.32-.23.62-.5.78-1.7 1.08-3.45 2.03-4.64 3.7-.86 1.2-2.11-.06-1.35-1.12.7-.99 1.39-1.8 2.36-2.53.36-.26.74-.5 1.11-.75-3.46-6.08-12.23 2.66-16.25 4.56a1.1 1.1 0 0 1-.19.07c.37.11.74.22 1.1.35 2.82.99 9.06 1.82 9.7 5.55.72 4.13-.38 6.28-3.5 9.01-1.9 1.66-6.76 1.17-9.05 1.37-2.56.23-4.72-.82-7.16-1.6-2.31-.75-4.88-.28-7.3-.2-1.17.05-.53-2.14.55-2.18 4.87-.17 7.64.28 12.29 1.78 1.68.54 4.74-.22 6.75-.4 7.55-.65 6-8.22-.21-10.23-8.17-2.64-16.5-4.15-24.66-6.8-6.72-2.19-13.02-.08-19.7 1.12-.24 4.25-.78 8.48-.75 12.72.02 3.9.4 7.77.64 11.66 5.49.54 11.03 1.1 16.43 2.21 5.16 1.06 10.25 3.56 15.56 4.5a.47.47 0 0 1 .08-.16c.65-.8.66-2 .82-3 .1-.63 1.4-.95 1.27-.17-.2 1.18-.25 2.53-1 3.51 1.28.17 2.59.23 3.9.15a11.7 11.7 0 0 0-.49-4.53c-.2-.63.74-1.48 1-.66.58 1.74.64 3.3.55 5.1 1.49-.17 2.92-.58 4.3-1.14a32.6 32.6 0 0 1-1.55-5.16c-.15-.64.87-1.4 1.06-.57.41 1.83.9 3.54 1.62 5.24a30.7 30.7 0 0 0 3.88-2.2c-.48-.56-.97-1.12-1.3-1.78-.32-.62-.44-1.25-.58-1.92-.15-.7 1.2-.56 1.34.08.14.67.27 1.32.65 1.9.25.38.54.73.83 1.07 4.47-3.12 8.66-7.05 13.14-9.27 4.7-2.32 8.8-4.63 12.55-8.37 1.24-1.24 2.73-2.22 3.95-3.44 5.03-5.01-.24-9.3-5.1-7.78z"/><path id="xagyb" d="M1400.28 3358.76c-.27-.26-.24-.66.02-.93.26-.26.66-.24.93.02l5.11 5.43c.27.25.25.66-.01.93-.11.09-.17.1-.3.14a.67.67 0 0 1-.64-.16zm12.28 3.18l-3.28-12.2c-.1-.37.09-.68.46-.78.37-.1.68.08.78.45l3.28 12.2c.1.36-.08.68-.46.78a.64.64 0 0 1-.78-.45zm7.27-2.35l1.65-7.25c.1-.35.44-.58.8-.48.36.1.58.44.48.8l-1.63 7.3a.67.67 0 0 1-.47.46c-.13.04-.25.07-.33.02-.36-.1-.58-.43-.5-.85zm8.96-1.29c-.3-.11-.48-.53-.3-.84l2.47-5.15c.19-.32.54-.48.86-.3.3.12.47.53.29.85l-2.47 5.15a.73.73 0 0 1-.45.32c-.12.03-.24.06-.4-.03zm-3.68 30.32c.28 1.04-.07 2.46-1.96 3.36l-.7.32-1.46-5.42.87.03c.95.08 2.82.1 3.25 1.7zm-1.24.33c-.09-.3-.36-.57-1.18-.67l.56 2.09c.5-.4.75-.93.62-1.42zm19.9-25.1l7.64 28.47a3.3 3.3 0 0 1-2.36 4.07l-49.57 13.3a3.3 3.3 0 0 1-4.09-2.33l-7.64-28.46a3.3 3.3 0 0 1 2.36-4.07l49.57-13.3a3.3 3.3 0 0 1 4.09 2.33zm-1.24.34a2.02 2.02 0 0 0-2.51-1.44l-49.58 13.32a2.02 2.02 0 0 0-1.45 2.5l7.64 28.46c.3 1.1 1.4 1.74 2.52 1.44l49.57-13.32a2.02 2.02 0 0 0 1.45-2.5zm-13.34 22.8c.96 3.57-.75 6.61-4.55 8.29l.7 2.65-3.96 1.06-.71-2.64c-2.75.4-5.26-.05-7.46-1.3l-.47-.27 1.85-5 .65.43a7.84 7.84 0 0 0 4.03 1.16l-.85-3.14c-2.5.08-6.6-.14-7.78-4.51-.86-3.2.87-6.38 4.44-7.93l-.72-2.71 3.96-1.07.75 2.77c2.33-.22 4.42.14 6.35 1.14l.53.25-1.96 4.82-.61-.3a7.14 7.14 0 0 0-2.94-.8l.71 2.66c2.58-.04 6.82.15 8.04 4.44zm-1.29.41c-.83-3.08-3.37-3.65-7.21-3.6h-.53l-1.42-5.3h.79a9.08 9.08 0 0 1 3.76.63l1-2.45a10.22 10.22 0 0 0-5.63-.66l-.57.08-.71-2.65-1.49.4.7 2.6-.54.2c-3.31 1.29-5 3.92-4.27 6.63.84 3.14 3.31 3.67 7.07 3.58h.53l1.52 5.66-.77.08a8.72 8.72 0 0 1-4.9-.93l-.91 2.55c1.93 1 4.2 1.31 6.67.85l.58-.09.67 2.53 1.5-.4-.69-2.53.54-.2c3.56-1.36 5.14-3.9 4.31-6.98zm-35.63-23.84c-.32-.18-.35-.57-.17-.88.18-.32.57-.35.88-.17l4.72 3.22c.31.18.35.57.17.88a.7.7 0 0 1-.34.22.73.73 0 0 1-.54-.05zm24.33 15.65l.65-.3 1.34 4.98-.87-.03c-.87-.03-2.62-.09-3.02-1.56-.34-1.3.4-2.49 1.9-3.09zm-.2 1.5c-.32.3-.6.7-.46 1.25.05.19.24.4.95.54z"/></defs><g><g transform="translate(-1386 -3347)"><use xlink:href="#xagya"/></g><g transform="translate(-1386 -3347)"><use xlink:href="#xagyb"/></g></g></svg>